<svg width="24" height="24" viewBox="0 0 24 24" fill="none" xmlns="http://www.w3.org/2000/svg">
<path d="M10.5557 5.39882C10.8892 5.15325 11.3579 5.2245 11.6035 5.558C11.8489 5.8915 11.7778 6.3603 11.4443 6.60585V6.60683C11.4437 6.60724 11.4425 6.60795 11.4414 6.60878C11.4389 6.61067 11.4348 6.6138 11.4297 6.61757C11.4189 6.62556 11.4021 6.63788 11.3809 6.6537C11.3382 6.68552 11.2748 6.7326 11.1943 6.79335C11.033 6.91521 10.8019 7.0924 10.5244 7.30898C9.96825 7.743 9.22896 8.33629 8.49219 8.97597C7.75182 9.61878 7.03016 10.294 6.5 10.8939C6.38884 11.0197 6.28955 11.1399 6.20117 11.2523H19C19.4142 11.2523 19.75 11.5881 19.75 12.0023C19.7498 12.4164 19.4141 12.7523 19 12.7523H6.20215C6.29033 12.8643 6.38921 12.9844 6.5 13.1098C7.03013 13.7097 7.75082 14.3858 8.49121 15.0287C9.22786 15.6683 9.96732 16.2617 10.5234 16.6957C10.8011 16.9124 11.033 17.0895 11.1943 17.2113C11.2748 17.2721 11.3382 17.3192 11.3809 17.351C11.402 17.3667 11.418 17.3791 11.4287 17.3871C11.434 17.391 11.4388 17.394 11.4414 17.3959C11.4426 17.3967 11.4438 17.3974 11.4443 17.3978V17.3988C11.7776 17.6445 11.849 18.1132 11.6035 18.4467C11.3732 18.7591 10.9463 18.842 10.6191 18.6488L10.5547 18.6059L10.5537 18.6049C10.5529 18.6043 10.5512 18.6039 10.5498 18.6029C10.5467 18.6006 10.542 18.5965 10.5361 18.5922C10.5243 18.5834 10.5067 18.5707 10.4844 18.5541C10.4393 18.5205 10.3733 18.4705 10.29 18.4076C10.1233 18.2817 9.8852 18.1004 9.60059 17.8783C9.0319 17.4345 8.27069 16.8239 7.50781 16.1615C6.74863 15.5023 5.96965 14.7769 5.375 14.1039C5.07847 13.7683 4.81184 13.427 4.61523 13.101C4.43115 12.7955 4.25013 12.4085 4.25 12.0023C4.25 11.5961 4.43116 11.2092 4.61523 10.9037C4.81182 10.5776 5.07846 10.2364 5.375 9.90077C5.96971 9.22772 6.74947 8.50243 7.50879 7.84315C8.27173 7.18075 9.03285 6.57018 9.60156 6.12636C9.88603 5.90436 10.1234 5.72296 10.29 5.59706C10.3733 5.53416 10.4392 5.48422 10.4844 5.45058C10.5066 5.43399 10.5242 5.42129 10.5361 5.41249C10.5417 5.40835 10.5467 5.40503 10.5498 5.40273C10.5512 5.4017 10.5528 5.40045 10.5537 5.3998L10.5547 5.39882H10.5557Z" fill="black" fill-opacity="0.7"/>
</svg>
