<svg width="30" height="30" viewBox="0 0 30 30" fill="none" xmlns="http://www.w3.org/2000/svg">
<path d="M6.66699 2.81348C9.69876 2.8096 12.6338 3.81853 15 5.66211C17.3662 3.81854 20.3012 2.80961 23.333 2.81348C23.5804 2.81348 23.8269 2.81904 24.0713 2.83203C25.4051 2.90293 26.511 2.92163 27.4941 3.95801V3.95898C27.9959 4.4882 28.2317 5.0808 28.3398 5.75781C28.44 6.38487 28.4375 7.14091 28.4375 8.00391V19.5791C28.4375 20.3324 28.4385 20.9534 28.4004 21.4375C28.3633 21.9086 28.2822 22.4049 28.0137 22.8242C27.9145 22.9792 27.804 23.1334 27.6562 23.2812C27.5084 23.4291 27.3534 23.5384 27.1982 23.6377C26.7567 23.9203 26.1778 23.9924 25.6436 24.0264C25.0645 24.0632 24.2958 24.0625 23.333 24.0625H23.332C20.4829 24.0586 17.7354 25.0894 15.6191 26.9531C15.596 26.9735 15.5702 26.9906 15.5449 27.0088C15.532 27.0181 15.5201 27.0286 15.5068 27.0371C15.4683 27.0619 15.4283 27.0852 15.3857 27.1045C15.3178 27.1352 15.247 27.1544 15.1758 27.168C15.1614 27.1707 15.1473 27.1747 15.1328 27.1768C15.1104 27.18 15.0879 27.1811 15.0654 27.1826C15.0436 27.1842 15.0219 27.1865 15 27.1865C14.9778 27.1865 14.9557 27.1842 14.9336 27.1826C14.9111 27.181 14.8886 27.18 14.8662 27.1768C14.8517 27.1747 14.8376 27.1707 14.8232 27.168C14.7524 27.1544 14.6819 27.135 14.6143 27.1045C14.5714 27.0851 14.5309 27.0621 14.4922 27.0371C14.4789 27.0285 14.467 27.0181 14.4541 27.0088C14.4291 26.9908 14.4038 26.9734 14.3809 26.9531C12.2646 25.0894 9.51705 24.0586 6.66797 24.0625H6.66699C5.70419 24.0625 4.93552 24.0632 4.35645 24.0264C3.82226 23.9924 3.24325 23.921 2.80176 23.6387H2.80078C2.6457 23.5394 2.49154 23.4291 2.34375 23.2812C2.1959 23.1334 2.08656 22.9783 1.9873 22.8232L1.98633 22.8242C1.7179 22.4049 1.63667 21.9086 1.59961 21.4375C1.56152 20.9534 1.5625 20.3324 1.5625 19.5791V8.00391C1.5625 7.14091 1.55996 6.38487 1.66016 5.75781C1.76835 5.08074 2.004 4.48725 2.50586 3.95801C3.48891 2.92159 4.59501 2.90293 5.92871 2.83203C6.17312 2.81904 6.41951 2.8125 6.66699 2.8125V2.81348ZM6.2207 17.1895C5.7032 17.2058 5.29613 17.6387 5.3125 18.1562C5.32905 18.6735 5.76206 19.0796 6.2793 19.0635C6.40797 19.0594 6.53766 19.0566 6.66699 19.0566V19.0576L6.66797 19.0566C8.13322 19.0546 9.57223 19.3274 10.9121 19.8457C11.3947 20.0321 11.9371 19.792 12.124 19.3096C12.3108 18.8267 12.0708 18.2835 11.5879 18.0967C10.0333 17.4953 8.36524 17.1804 6.66699 17.1826V17.1816C6.51759 17.1816 6.36859 17.1848 6.2207 17.1895ZM23.333 17.1826C21.6347 17.1804 19.9667 17.4953 18.4121 18.0967C17.9292 18.2835 17.6892 18.8267 17.876 19.3096C18.0629 19.792 18.6053 20.0321 19.0879 19.8457C20.4277 19.3274 21.8667 19.0546 23.332 19.0566H23.333C23.4623 19.0566 23.592 19.0594 23.7207 19.0635C24.2379 19.0796 24.671 18.6735 24.6875 18.1562C24.7039 17.6387 24.2968 17.2058 23.7793 17.1895C23.6314 17.1848 23.4824 17.1816 23.333 17.1816V17.1826ZM6.2207 12.8213C5.7032 12.8377 5.29613 13.2706 5.3125 13.7881C5.32889 14.3055 5.76196 14.7115 6.2793 14.6953C6.40796 14.6912 6.53765 14.6895 6.66699 14.6895H6.66797C8.13322 14.6874 9.57223 14.9592 10.9121 15.4775C11.3948 15.664 11.9372 15.424 12.124 14.9414C12.3108 14.4585 12.0708 13.9153 11.5879 13.7285C10.0328 13.127 8.36383 12.812 6.66504 12.8145C6.51619 12.8145 6.36806 12.8166 6.2207 12.8213ZM23.334 12.8145C21.6354 12.8121 19.9669 13.127 18.4121 13.7285C17.9292 13.9153 17.6892 14.4585 17.876 14.9414C18.0628 15.424 18.6052 15.664 19.0879 15.4775C20.4277 14.9592 21.8667 14.6874 23.332 14.6895H23.333C23.4623 14.6895 23.592 14.6912 23.7207 14.6953C24.238 14.7115 24.6711 14.3055 24.6875 13.7881C24.7039 13.2706 24.2968 12.8377 23.7793 12.8213C23.6316 12.8166 23.4831 12.8145 23.334 12.8145ZM6.21973 8.21973C5.70233 8.23644 5.2959 8.67007 5.3125 9.1875C5.32928 9.70483 5.76289 10.1103 6.28027 10.0938C6.40853 10.0896 6.53768 10.0879 6.66699 10.0879H6.66797C7.31843 10.087 7.96401 10.1405 8.59766 10.2451C9.10826 10.3292 9.59036 9.98322 9.6748 9.47266C9.75915 8.96181 9.41319 8.47888 8.90234 8.39453C8.16803 8.27331 7.42047 8.21291 6.66699 8.21387V8.21289C6.51754 8.21289 6.36807 8.21497 6.21973 8.21973ZM23.333 8.21387C22.5795 8.21291 21.832 8.27331 21.0977 8.39453C20.5868 8.47887 20.2409 8.96181 20.3252 9.47266C20.4096 9.98322 20.8917 10.3292 21.4023 10.2451C22.0361 10.1405 22.6815 10.087 23.332 10.0879H23.333C23.4623 10.0879 23.5914 10.0896 23.7197 10.0938C24.2371 10.1103 24.6707 9.70483 24.6875 9.1875C24.7041 8.67007 24.2977 8.23643 23.7803 8.21973C23.6319 8.21497 23.4824 8.21387 23.333 8.21387Z" fill="#3C3C3C"/>
</svg>
