<svg width="30" height="30" viewBox="0 0 30 30" fill="none" xmlns="http://www.w3.org/2000/svg">
<path d="M3.75 21.25H26.25" stroke="#3C3C3C" stroke-width="1.875" stroke-linecap="round"/>
<path d="M16.4287 1.5625C18.4254 1.5625 20.0057 1.56087 21.2402 1.70605C22.4904 1.85313 23.5291 2.16355 24.3623 2.89258C25.2135 3.63736 25.5928 4.59319 25.7695 5.74316C25.9399 6.8519 25.9375 8.26254 25.9375 10V21.25C25.9375 21.7678 25.5178 22.1875 25 22.1875H5C4.48223 22.1875 4.0625 21.7678 4.0625 21.25V10C4.0625 8.26254 4.06014 6.8519 4.23047 5.74316C4.40717 4.59319 4.78652 3.63736 5.6377 2.89258C6.47086 2.16355 7.50958 1.85313 8.75977 1.70605C9.99432 1.56087 11.5746 1.5625 13.5713 1.5625H16.4287ZM14.6504 5.93945C14.1651 5.92759 13.664 5.96856 13.2402 6.0293C12.7278 6.10283 12.3719 6.57834 12.4453 7.09082C12.519 7.60311 12.9945 7.95918 13.5068 7.88574C13.8517 7.83633 14.2457 7.80569 14.6045 7.81445C14.7889 7.81897 14.9413 7.83312 15.0615 7.85254C14.977 7.96637 14.8566 8.10872 14.6865 8.2793C13.3195 9.65081 11.5969 11.8855 10.7959 13.582C10.5938 14.0101 10.4269 14.4517 10.3535 14.8662C10.2859 15.2482 10.2617 15.8119 10.6113 16.2852C10.9997 16.8104 11.6047 16.9142 12.0889 16.8818C12.5726 16.8494 13.1296 16.6783 13.7441 16.4141C14.8441 15.9411 15.7549 15.6793 16.4609 15.5703C17.1658 15.4615 17.5863 15.5176 17.7832 15.5898C17.7378 15.7015 17.6214 15.9128 17.3223 16.2129C16.9568 16.5796 16.9585 17.1736 17.3252 17.5391C17.6918 17.9043 18.2849 17.9035 18.6504 17.5371C19.2041 16.9816 19.645 16.3191 19.6846 15.6045C19.7057 15.2216 19.6081 14.8413 19.373 14.5146C19.1448 14.1977 18.8283 13.9882 18.5 13.8564C17.8646 13.6015 17.0538 13.5813 16.1758 13.7168C15.2756 13.8557 14.209 14.1728 13.0029 14.6914C12.6884 14.8266 12.4448 14.9067 12.2627 14.9541C12.3119 14.7983 12.3853 14.6073 12.4912 14.3828C13.173 12.9388 14.7457 10.8756 16.0146 9.60254C16.5653 9.0501 17.0077 8.4517 17.0791 7.81152C17.1195 7.44805 17.0368 7.09023 16.8242 6.78711C16.6255 6.50382 16.3572 6.3293 16.1201 6.2207C15.6626 6.01126 15.1121 5.95075 14.6504 5.93945Z" fill="#3C3C3C"/>
<path d="M15 21.25V26.25" stroke="#3C3C3C" stroke-width="1.875" stroke-linecap="round"/>
<path d="M6.25 27.5L10 21.25" stroke="#3C3C3C" stroke-width="1.875" stroke-linecap="round"/>
<path d="M23.75 27.5L20 21.25" stroke="#3C3C3C" stroke-width="1.875" stroke-linecap="round"/>
</svg>
