<svg width="30" height="30" viewBox="0 0 30 30" fill="none" xmlns="http://www.w3.org/2000/svg">
<path d="M5 15C5 10.286 5 7.92894 6.46446 6.46446C7.92894 5 10.286 5 15 5C19.714 5 22.0711 5 23.5355 6.46446C25 7.92894 25 10.286 25 15C25 19.714 25 22.0711 23.5355 23.5355C22.0711 25 19.714 25 15 25C10.286 25 7.92894 25 6.46446 23.5355C5 22.0711 5 19.714 5 15Z" stroke="#3C3C3C" stroke-width="2" stroke-linejoin="round"/>
<path d="M9 15C9 12.1716 9 10.7574 9.87868 9.87868C10.7574 9 12.1716 9 15 9C17.8284 9 19.2427 9 20.1213 9.87868C21 10.7574 21 12.1716 21 15C21 17.8284 21 19.2427 20.1213 20.1213C19.2427 21 17.8284 21 15 21C12.1716 21 10.7574 21 9.87868 20.1213C9 19.2427 9 17.8284 9 15Z" fill="#3C3C3C" stroke="#3C3C3C" stroke-width="2" stroke-linejoin="round"/>
<path d="M10 2.5V5M20 2.5V5M15 2.5V5M10 25V27.5M15 25V27.5M20 25V27.5M27.5 20H25M5 10H2.5M5 20H2.5M5 15H2.5M27.5 10H25M27.5 15H25" stroke="#3C3C3C" stroke-width="2" stroke-linecap="round" stroke-linejoin="round"/>
</svg>
