<svg width="34" height="34" viewBox="0 0 34 34" fill="none" xmlns="http://www.w3.org/2000/svg">
<path d="M24.3949 12.5751L17.7356 19.2344C17.228 19.7419 16.5922 20.102 15.8959 20.276L13 21L13.724 18.1041C13.898 17.4078 14.2581 16.772 14.7656 16.2644L21.4249 9.60509L22.4149 8.6151C23.2351 7.79497 24.5648 7.79497 25.3849 8.6151C26.205 9.43524 26.205 10.7649 25.3849 11.5851L24.3949 12.5751ZM21.4249 9.60509L24.3949 12.5751" stroke="black" stroke-width="1.5" stroke-linejoin="round"/>
<path d="M23.9999 18.5C23.9999 21.7875 23.9999 23.4312 23.092 24.5376C22.9258 24.7401 22.7401 24.9258 22.5375 25.092C21.4312 26 19.7874 26 16.4999 26H16C12.2288 26 10.3432 26 9.17159 24.8284C8.00003 23.6569 8 21.7712 8 18V17.5C8 14.2125 8 12.5688 8.90794 11.4624C9.07417 11.2599 9.2599 11.0742 9.46244 10.9079C10.5688 10 12.2125 10 15.5 10" stroke="black" stroke-width="1.5" stroke-linecap="round" stroke-linejoin="round"/>
</svg>
