<svg width="30" height="30" viewBox="0 0 30 30" fill="none" xmlns="http://www.w3.org/2000/svg">
<path d="M15 0.625C22.9391 0.625 29.375 7.06091 29.375 15C29.375 22.9391 22.9391 29.375 15 29.375C7.06091 29.375 0.625 22.9391 0.625 15C0.625 7.06091 7.06091 0.625 15 0.625ZM10.2168 17.2891C10.1003 16.8242 9.62901 16.542 9.16406 16.6582C8.69924 16.7747 8.41697 17.246 8.5332 17.7109C9.25755 20.6074 12.1125 22.7432 15 22.7432C15.4794 22.7432 15.8682 22.3544 15.8682 21.875C15.8682 21.3956 15.4794 21.0068 15 21.0068C12.8877 21.0068 10.7426 19.3924 10.2168 17.2891ZM12.665 10.3682C12.1779 10.193 11.6411 10.4455 11.4658 10.9326C11.3364 11.2926 10.9798 11.5625 10.5488 11.5625C10.1179 11.5624 9.76125 11.2925 9.63184 10.9326C9.45654 10.4456 8.91976 10.193 8.43262 10.3682C7.94556 10.5435 7.693 11.0802 7.86816 11.5674C8.2625 12.6637 9.3189 13.4374 10.5488 13.4375C11.7789 13.4375 12.8362 12.6639 13.2305 11.5674C13.4057 11.0802 13.1523 10.5434 12.665 10.3682ZM21.5674 10.3682C21.0802 10.193 20.5435 10.4456 20.3682 10.9326C20.2387 11.2926 19.8821 11.5624 19.4512 11.5625C19.0201 11.5625 18.6636 11.2926 18.5342 10.9326C18.3589 10.4455 17.8221 10.193 17.335 10.3682C16.8477 10.5434 16.5943 11.0802 16.7695 11.5674C17.1638 12.6638 18.221 13.4375 19.4512 13.4375C20.681 13.4374 21.7375 12.6637 22.1318 11.5674C22.307 11.0802 22.0544 10.5435 21.5674 10.3682Z" fill="#3C3C3C"/>
</svg>
