<svg width="34" height="34" viewBox="0 0 34 34" fill="none" xmlns="http://www.w3.org/2000/svg">
<path d="M25.7906 14.152C26.5969 15.5418 27 16.2366 27 17C27 17.7634 26.5969 18.4582 25.7906 19.848L23.8669 23.1638C23.0638 24.548 22.6623 25.2402 22.0019 25.6201C21.3416 26 20.5402 26 18.9373 26H15.0627C13.4598 26 12.6584 26 11.9981 25.6201C11.3377 25.2402 10.9362 24.548 10.1331 23.1638L8.20942 19.848C7.40314 18.4582 7 17.7634 7 17C7 16.2366 7.40314 15.5418 8.20942 14.152L10.1331 10.8362C10.9362 9.45196 11.3377 8.75984 11.9981 8.37992C12.6584 8 13.4598 8 15.0627 8H18.9373C20.5402 8 21.3416 8 22.0019 8.37992C22.6623 8.75984 23.0638 9.45197 23.8669 10.8362L25.7906 14.152Z" stroke="#141B34" stroke-width="1.5"/>
<path d="M20.5 17C20.5 18.933 18.933 20.5 17 20.5C15.067 20.5 13.5 18.933 13.5 17C13.5 15.067 15.067 13.5 17 13.5C18.933 13.5 20.5 15.067 20.5 17Z" stroke="#141B34" stroke-width="1.5"/>
</svg>
